<?xml version="1.0" encoding="UTF-8"?>
<svg id="Layer_2" data-name="Layer 2" xmlns="http://www.w3.org/2000/svg" viewBox="0 0 500.75 350">
  <defs>
    <style>
      .cls-1 {
        fill: #38b2c3;
      }

      .cls-2 {
        stroke: #44608a;
      }

      .cls-2, .cls-3 {
        stroke-width: 11.61px;
      }

      .cls-2, .cls-3, .cls-4 {
        stroke-linecap: round;
        stroke-linejoin: round;
      }

      .cls-2, .cls-4 {
        fill: #f47c5b;
      }

      .cls-3 {
        fill: none;
        stroke: #45608a;
      }

      .cls-4 {
        stroke: #47618a;
        stroke-width: 9.29px;
      }

      .cls-5 {
        fill: #fafbfb;
      }
    </style>
  </defs>
  <g id="Layer_1-2" data-name="Layer 1">
    <g id="Generative_Object" data-name="Generative Object">
      <g>
        <path class="cls-2" d="M46.44,5.81l404.04.46c20.61,1.35,38.85,17.31,41.8,37.85-5.82,81.68,7.46,173.83.7,254.26-1.69,20.11-8.13,33.09-27.4,42.03-139.22,7.53-280.37,1.13-420.29,3.25-20.16-2.19-36.74-18.22-39.47-38.31V45.28C9.6,23.34,24.83,9.45,46.44,5.81Z"/>
        <path class="cls-1" d="M135.14,308.66h0c-.24.34-1.1.25-1.43.65-10.62,12.78-34.83,10.55-44.46-3.41-23.06-33.43,31.86-63.56,51.26-25.1l-.23,1.21c-2.4,5.76-2.3,21.05-4.9,25.44l-.23,1.21Z"/>
        <g>
          <path class="cls-5" d="M135.14,308.66l.23-1.21c2.6-4.4,2.5-19.68,4.9-25.44l.23-1.21c-19.4-38.45-74.32-8.33-51.26,25.1l-2.17,1.77c-9.53,2.88-31.15,6.73-34.83-5.81V62.7c1.14-8.4,6.41-15.76,15.09-17.42h363.4c9.6,1.58,13.99,9.59,15.09,18.58v236.85c-.33,2.66-1.5,5.16-3.48,6.97-11.32,10.29-271.09-4.16-306.04.99h-1.16Z"/>
          <path class="cls-4" d="M202.02,92.88c3.41-.71,7.39,1.53,10.45,2.79,11.47,4.71,90.06,50.7,97.53,57.82,6.29,6,7.52,15.1,1.16,21.59-4.31,4.4-97.5,57.21-103.33,58.28-11.62,2.13-15.46-5.44-17.42-15.09s-1.73-98.55.23-109.14c1.33-7.19,2.64-14.43,11.38-16.25Z"/>
        </g>
      </g>
      <g>
        <path class="cls-3" d="M87.08,307.67c-9.53,2.88-31.15,6.73-34.83-5.81V62.7c1.14-8.4,6.41-15.76,15.09-17.42h363.4c9.6,1.58,13.99,9.59,15.09,18.58v236.85c-.33,2.66-1.5,5.16-3.48,6.97-11.32,10.29-271.09-4.16-306.04.99h-1.16"/>
        <path class="cls-3" d="M140.51,280.79l-.23,1.21c-2.4,5.76-2.3,21.05-4.9,25.44-.21.36-.03.93-.23,1.21"/>
        <path class="cls-3" d="M140.51,280.79c-19.4-38.45-74.32-8.33-51.26,25.1,9.63,13.96,33.84,16.19,44.46,3.41l1.43-.65"/>
        <path class="cls-3" d="M409.84,305.35c-1.22-8.77,4.52-23.53-8.13-25.54l-261.2.99"/>
      </g>
    </g>
  </g>
</svg>